<?xml version="1.0" encoding="UTF-8" standalone="no"?>
<!-- Created with Inkscape (http://www.inkscape.org/) -->
<svg
   xmlns:dc="http://purl.org/dc/elements/1.1/"
   xmlns:cc="http://creativecommons.org/ns#"
   xmlns:rdf="http://www.w3.org/1999/02/22-rdf-syntax-ns#"
   xmlns:svg="http://www.w3.org/2000/svg"
   xmlns="http://www.w3.org/2000/svg"
   xmlns:xlink="http://www.w3.org/1999/xlink"
   xmlns:sodipodi="http://sodipodi.sourceforge.net/DTD/sodipodi-0.dtd"
   xmlns:inkscape="http://www.inkscape.org/namespaces/inkscape"
   width="263.09"
   height="296.76999"
   id="svg2"
   sodipodi:version="0.32"
   inkscape:version="0.46"
   sodipodi:docname="klaps.svg"
   inkscape:output_extension="org.inkscape.output.svg.inkscape"
   version="1.0"
   inkscape:export-filename="C:\All\klaps.png"
   inkscape:export-xdpi="99"
   inkscape:export-ydpi="99">
  <defs
     id="defs4">
    <linearGradient
       id="linearGradient3232">
      <stop
         style="stop-color:#f8f8f8;stop-opacity:1;"
         offset="0"
         id="stop3234" />
      <stop
         style="stop-color:#454545;stop-opacity:1;"
         offset="1"
         id="stop3236" />
    </linearGradient>
    <linearGradient
       inkscape:collect="always"
       id="linearGradient3187">
      <stop
         style="stop-color:#ffffff;stop-opacity:1;"
         offset="0"
         id="stop3189" />
      <stop
         style="stop-color:#ffffff;stop-opacity:0;"
         offset="1"
         id="stop3191" />
    </linearGradient>
    <inkscape:perspective
       sodipodi:type="inkscape:persp3d"
       inkscape:vp_x="0 : 526.18109 : 1"
       inkscape:vp_y="0 : 1000 : 0"
       inkscape:vp_z="744.09448 : 526.18109 : 1"
       inkscape:persp3d-origin="372.04724 : 350.78739 : 1"
       id="perspective10" />
    <inkscape:perspective
       id="perspective2390"
       inkscape:persp3d-origin="372.04724 : 350.78739 : 1"
       inkscape:vp_z="744.09448 : 526.18109 : 1"
       inkscape:vp_y="0 : 1000 : 0"
       inkscape:vp_x="0 : 526.18109 : 1"
       sodipodi:type="inkscape:persp3d" />
    <radialGradient
       inkscape:collect="always"
       xlink:href="#linearGradient3187"
       id="radialGradient3193"
       cx="358.82086"
       cy="240.66075"
       fx="358.82086"
       fy="240.66075"
       r="127.5"
       gradientTransform="matrix(1.8320347,-0.4074149,0.261117,1.1741733,-387.69946,157.03564)"
       gradientUnits="userSpaceOnUse" />
    <filter
       inkscape:collect="always"
       id="filter3205">
      <feGaussianBlur
         inkscape:collect="always"
         stdDeviation="0.69811522"
         id="feGaussianBlur3207" />
    </filter>
    <radialGradient
       inkscape:collect="always"
       xlink:href="#linearGradient3232"
       id="radialGradient3240"
       cx="107.14286"
       cy="458.79074"
       fx="107.14286"
       fy="458.79074"
       r="8.5714283"
       gradientUnits="userSpaceOnUse" />
    <filter
       inkscape:collect="always"
       id="filter3434">
      <feGaussianBlur
         inkscape:collect="always"
         stdDeviation="2.297086"
         id="feGaussianBlur3436" />
    </filter>
    <radialGradient
       inkscape:collect="always"
       xlink:href="#linearGradient3187"
       id="radialGradient3526"
       gradientUnits="userSpaceOnUse"
       gradientTransform="matrix(1.8320347,-0.4074149,0.261117,1.1741733,-387.69946,157.03564)"
       cx="358.82086"
       cy="240.66075"
       fx="358.82086"
       fy="240.66075"
       r="127.5" />
    <radialGradient
       inkscape:collect="always"
       xlink:href="#linearGradient3232"
       id="radialGradient3528"
       gradientUnits="userSpaceOnUse"
       cx="107.14286"
       cy="458.79074"
       fx="107.14286"
       fy="458.79074"
       r="8.5714283" />
    <radialGradient
       inkscape:collect="always"
       xlink:href="#linearGradient3187"
       id="radialGradient3530"
       gradientUnits="userSpaceOnUse"
       gradientTransform="matrix(1.8320347,-0.4074149,0.261117,1.1741733,-387.69946,157.03564)"
       cx="358.82086"
       cy="240.66075"
       fx="358.82086"
       fy="240.66075"
       r="127.5" />
    <radialGradient
       inkscape:collect="always"
       xlink:href="#linearGradient3232"
       id="radialGradient3532"
       gradientUnits="userSpaceOnUse"
       cx="107.14286"
       cy="458.79074"
       fx="107.14286"
       fy="458.79074"
       r="8.5714283" />
    <radialGradient
       inkscape:collect="always"
       xlink:href="#linearGradient3187"
       id="radialGradient2451"
       gradientUnits="userSpaceOnUse"
       gradientTransform="matrix(1.8320347,-0.4074149,0.261117,1.1741733,-686.27088,124.1785)"
       cx="358.82086"
       cy="240.66075"
       fx="358.82086"
       fy="240.66075"
       r="127.5" />
  </defs>
  <sodipodi:namedview
     id="base"
     pagecolor="#ffffff"
     bordercolor="#666666"
     borderopacity="1.0"
     gridtolerance="10000"
     guidetolerance="10"
     objecttolerance="10"
     inkscape:pageopacity="0.0"
     inkscape:pageshadow="2"
     inkscape:zoom="0.98994949"
     inkscape:cx="170.55865"
     inkscape:cy="166.95758"
     inkscape:document-units="px"
     inkscape:current-layer="layer1"
     showgrid="false"
     inkscape:window-width="1024"
     inkscape:window-height="721"
     inkscape:window-x="0"
     inkscape:window-y="20" />
  <metadata
     id="metadata7">
    <rdf:RDF>
      <cc:Work
         rdf:about="">
        <dc:format>image/svg+xml</dc:format>
        <dc:type
           rdf:resource="http://purl.org/dc/dcmitype/StillImage" />
      </cc:Work>
    </rdf:RDF>
  </metadata>
  <g
     inkscape:label="Layer 1"
     inkscape:groupmode="layer"
     id="layer1"
     transform="translate(-5.497373,-4.8686485)">
    <path
       id="path3428"
       d="M 29.86608,94.225667 C 19.18179,94.225667 10.58483,103.49518 10.58483,114.9892 L 10.58483,135.7218 C 10.58483,136.37635 10.59274,137.03255 10.64733,137.67128 C 10.5914,138.27736 10.58483,138.87599 10.58483,139.49699 L 10.58483,278.83859 C 10.58483,289.81016 19.50483,298.64288 30.58483,298.64286 L 245.58483,298.64286 C 256.66483,298.64286 265.58486,289.81018 265.58483,278.83859 L 265.58483,139.49699 C 265.58483,128.52542 256.66486,119.69272 245.58483,119.69272 L 49.14733,119.69272 L 49.14733,114.9892 C 49.14733,103.49518 40.55037,94.225667 29.86608,94.225667 z"
       style="fill:#000000;fill-opacity:1;fill-rule:nonzero;stroke:none;stroke-width:4;stroke-linecap:round;stroke-linejoin:round;stroke-miterlimit:4;stroke-opacity:1;filter:url(#filter3434)" />
    <path
       style="fill:#000000;fill-opacity:1;fill-rule:nonzero;stroke:none;stroke-width:4;stroke-linecap:round;stroke-linejoin:round;stroke-miterlimit:4;stroke-opacity:1"
       d="M 27.86608,90.205357 C 17.18179,90.205357 8.58483,99.566487 8.58483,111.17411 L 8.58483,132.11161 C 8.58483,132.77263 8.59274,133.43532 8.64733,134.08036 C 8.5914,134.69243 8.58483,135.29697 8.58483,135.92411 L 8.58483,276.64286 C 8.58483,287.72286 17.50483,296.64288 28.58483,296.64286 L 243.58483,296.64286 C 254.66483,296.64286 263.58486,287.72288 263.58483,276.64286 L 263.58483,135.92411 C 263.58483,124.84411 254.66486,115.92411 243.58483,115.92411 L 47.14733,115.92411 L 47.14733,111.17411 C 47.14733,99.566487 38.55037,90.205357 27.86608,90.205357 z"
       id="rect2396" />
    <path
       id="path3185"
       d="M 27.86608,90.205357 C 17.18179,90.205357 8.58483,99.566487 8.58483,111.17411 L 8.58483,132.11161 C 8.58483,132.77263 8.59274,133.43532 8.64733,134.08036 C 8.5914,134.69243 8.58483,135.29697 8.58483,135.92411 L 8.58483,276.64286 C 8.58483,287.72286 17.50483,296.64288 28.58483,296.64286 L 243.58483,296.64286 C 254.66483,296.64286 263.58486,287.72288 263.58483,276.64286 L 263.58483,135.92411 C 263.58483,124.84411 254.66486,115.92411 243.58483,115.92411 L 47.14733,115.92411 L 47.14733,111.17411 C 47.14733,99.566487 38.55037,90.205357 27.86608,90.205357 z"
       style="opacity:0.22261484;fill:url(#radialGradient2451);fill-opacity:1;fill-rule:nonzero;stroke:none;stroke-width:4;stroke-linecap:round;stroke-linejoin:round;stroke-miterlimit:4;stroke-opacity:1" />
    <rect
       y="147.36217"
       x="307.16266"
       height="24.285713"
       width="254.96037"
       id="rect3195"
       style="fill:#717171;fill-opacity:1;fill-rule:nonzero;stroke:none;stroke-width:4;stroke-linecap:round;stroke-linejoin:round;stroke-miterlimit:4;stroke-dasharray:none;stroke-opacity:1;filter:url(#filter3205)"
       transform="matrix(0.9971985,0,0,0.9411765,-296.63946,-22.760208)" />
    <g
       id="g3209"
       transform="translate(-298.57142,-32.857143)">
      <rect
         y="148.07646"
         x="307.16266"
         height="22.142857"
         width="254.96037"
         id="rect3170"
         style="opacity:1;fill:#000000;fill-opacity:1;fill-rule:nonzero;stroke:none;stroke-width:4;stroke-linecap:round;stroke-linejoin:round;stroke-miterlimit:4;stroke-dasharray:none;stroke-opacity:1" />
      <rect
         transform="matrix(1,0,-0.5421269,0.8402966,0,0)"
         style="opacity:1;fill:#ffffff;fill-opacity:1;fill-rule:nonzero;stroke:none;stroke-width:4;stroke-linecap:round;stroke-linejoin:round;stroke-miterlimit:4;stroke-dasharray:none;stroke-opacity:1"
         id="rect3174"
         width="33.17466"
         height="26.351238"
         x="620.91016"
         y="176.21927" />
      <rect
         y="176.21927"
         x="561.98157"
         height="26.351238"
         width="33.17466"
         id="rect3176"
         style="opacity:1;fill:#ffffff;fill-opacity:1;fill-rule:nonzero;stroke:none;stroke-width:4;stroke-linecap:round;stroke-linejoin:round;stroke-miterlimit:4;stroke-dasharray:none;stroke-opacity:1"
         transform="matrix(1,0,-0.5421269,0.8402966,0,0)" />
      <rect
         transform="matrix(1,0,-0.5421269,0.8402966,0,0)"
         style="opacity:1;fill:#ffffff;fill-opacity:1;fill-rule:nonzero;stroke:none;stroke-width:4;stroke-linecap:round;stroke-linejoin:round;stroke-miterlimit:4;stroke-dasharray:none;stroke-opacity:1"
         id="rect3178"
         width="33.17466"
         height="26.351238"
         x="501.62442"
         y="176.21927" />
      <rect
         y="176.21927"
         x="442.33871"
         height="26.351238"
         width="33.17466"
         id="rect3180"
         style="opacity:1;fill:#ffffff;fill-opacity:1;fill-rule:nonzero;stroke:none;stroke-width:4;stroke-linecap:round;stroke-linejoin:round;stroke-miterlimit:4;stroke-dasharray:none;stroke-opacity:1"
         transform="matrix(1,0,-0.5421269,0.8402966,0,0)" />
    </g>
    <rect
       transform="matrix(0.9414968,-0.3286161,0.3101547,0.8886041,-329.40036,66.313163)"
       style="fill:#717171;fill-opacity:1;fill-rule:nonzero;stroke:none;stroke-width:4;stroke-linecap:round;stroke-linejoin:round;stroke-miterlimit:4;stroke-dasharray:none;stroke-opacity:1;filter:url(#filter3205)"
       id="rect3228"
       width="254.96037"
       height="24.285713"
       x="307.16266"
       y="147.36217" />
    <g
       id="g3216"
       transform="matrix(0.9311941,-0.3645238,-0.3645238,-0.9311941,-217.79509,368.2831)">
      <rect
         style="opacity:1;fill:#000000;fill-opacity:1;fill-rule:nonzero;stroke:none;stroke-width:4;stroke-linecap:round;stroke-linejoin:round;stroke-miterlimit:4;stroke-dasharray:none;stroke-opacity:1"
         id="rect3218"
         width="254.96037"
         height="22.142857"
         x="307.16266"
         y="148.07646" />
      <rect
         y="176.21927"
         x="620.91016"
         height="26.351238"
         width="33.17466"
         id="rect3220"
         style="opacity:1;fill:#ffffff;fill-opacity:1;fill-rule:nonzero;stroke:none;stroke-width:4;stroke-linecap:round;stroke-linejoin:round;stroke-miterlimit:4;stroke-dasharray:none;stroke-opacity:1"
         transform="matrix(1,0,-0.5421269,0.8402966,0,0)" />
      <rect
         transform="matrix(1,0,-0.5421269,0.8402966,0,0)"
         style="opacity:1;fill:#ffffff;fill-opacity:1;fill-rule:nonzero;stroke:none;stroke-width:4;stroke-linecap:round;stroke-linejoin:round;stroke-miterlimit:4;stroke-dasharray:none;stroke-opacity:1"
         id="rect3222"
         width="33.17466"
         height="26.351238"
         x="561.98157"
         y="176.21927" />
      <rect
         y="176.21927"
         x="501.62442"
         height="26.351238"
         width="33.17466"
         id="rect3224"
         style="opacity:1;fill:#ffffff;fill-opacity:1;fill-rule:nonzero;stroke:none;stroke-width:4;stroke-linecap:round;stroke-linejoin:round;stroke-miterlimit:4;stroke-dasharray:none;stroke-opacity:1"
         transform="matrix(1,0,-0.5421269,0.8402966,0,0)" />
      <rect
         transform="matrix(1,0,-0.5421269,0.8402966,0,0)"
         style="opacity:1;fill:#ffffff;fill-opacity:1;fill-rule:nonzero;stroke:none;stroke-width:4;stroke-linecap:round;stroke-linejoin:round;stroke-miterlimit:4;stroke-dasharray:none;stroke-opacity:1"
         id="rect3226"
         width="33.17466"
         height="26.351238"
         x="442.33871"
         y="176.21927" />
    </g>
    <path
       sodipodi:type="arc"
       style="fill:url(#radialGradient3532);fill-opacity:1;fill-rule:nonzero;stroke:none;stroke-width:1;stroke-linecap:round;stroke-linejoin:round;stroke-miterlimit:4;stroke-dasharray:none;stroke-opacity:1"
       id="path3230"
       sodipodi:cx="107.14286"
       sodipodi:cy="458.79074"
       sodipodi:rx="8.5714283"
       sodipodi:ry="8.5714283"
       d="M 115.71429,458.79074 A 8.5714283,8.5714283 0 1 1 98.571432,458.79074 A 8.5714283,8.5714283 0 1 1 115.71429,458.79074 z"
       transform="matrix(0.3958333,0,0,0.3958333,-14.73212,-79.421066)" />
    <path
       style="fill:none;fill-rule:evenodd;stroke:#ffffff;stroke-width:3;stroke-linecap:butt;stroke-linejoin:miter;stroke-miterlimit:4;stroke-dasharray:none;stroke-opacity:1"
       d="M 24.28572,258.43361 L 245,259.86218"
       id="path3262" />
    <path
       style="fill:none;fill-rule:evenodd;stroke:#ffffff;stroke-width:3;stroke-linecap:butt;stroke-linejoin:miter;stroke-miterlimit:4;stroke-dasharray:none;stroke-opacity:1"
       d="M 81.42858,258.79076 L 81.42858,291.6479"
       id="path3272" />
    <path
       style="fill:none;fill-rule:evenodd;stroke:#ffffff;stroke-width:3;stroke-linecap:butt;stroke-linejoin:miter;stroke-miterlimit:4;stroke-dasharray:none;stroke-opacity:1"
       d="M 178.57144,258.79076 L 178.57144,290.93361"
       id="path3274" />
    <path
       style="font-size:14.32116127px;font-style:normal;font-variant:normal;font-weight:normal;font-stretch:normal;text-align:center;text-anchor:middle;fill:#ffffff;fill-opacity:1;stroke:none;stroke-width:1px;stroke-linecap:butt;stroke-linejoin:miter;stroke-opacity:1;font-family:Arial Black;-inkscape-font-specification:Arial Black"
       d="M 16.811311,145.04217 L 22.741167,145.04217 C 23.729469,145.04218 24.488182,145.28693 25.017309,145.77641 C 25.546418,146.26591 25.810977,146.87195 25.810987,147.59453 C 25.810977,148.20057 25.622172,148.72037 25.244573,149.15391 C 24.992825,149.44295 24.62454,149.67138 24.139718,149.8392 C 24.876279,150.01636 25.418217,150.32054 25.765534,150.75175 C 26.11283,151.18298 26.286483,151.72492 26.286494,152.37757 C 26.286483,152.90902 26.162945,153.38686 25.915878,153.81108 C 25.668791,154.23531 25.330808,154.57096 24.901928,154.81804 C 24.636195,154.97188 24.235277,155.08377 23.699175,155.15369 C 22.985907,155.24693 22.512731,155.29355 22.279646,155.29355 L 16.811311,155.29355 L 16.811311,145.04217 z M 20.007,149.063 L 21.384573,149.063 C 21.878721,149.06301 22.222532,148.97793 22.416004,148.80777 C 22.609464,148.63762 22.706197,148.39171 22.706204,148.07003 C 22.706197,147.77168 22.609464,147.53859 22.416004,147.37076 C 22.222532,147.20294 21.885714,147.11903 21.405551,147.11902 L 20.007,147.11902 L 20.007,149.063 z M 20.007,153.09083 L 21.622327,153.09083 C 22.167755,153.09083 22.552356,152.9941 22.776131,152.80063 C 22.999892,152.60717 23.111776,152.34727 23.111783,152.02094 C 23.111776,151.71792 23.001057,151.47434 22.779627,151.2902 C 22.558183,151.10606 22.170086,151.01399 21.615334,151.01398 L 20.007,151.01398 L 20.007,153.09083 z M 27.978741,145.04217 L 32.684864,145.04217 C 33.612563,145.04218 34.361953,145.16805 34.933035,145.41978 C 35.504101,145.67153 35.976112,146.03282 36.349068,146.50366 C 36.722005,146.97451 36.992391,147.52228 37.160227,148.14695 C 37.328043,148.77165 37.411956,149.43363 37.411966,150.1329 C 37.411956,151.22843 37.287252,152.07805 37.037854,152.68175 C 36.788436,153.28546 36.442295,153.79127 35.99943,154.19918 C 35.556547,154.60709 35.08104,154.87865 34.572908,155.01384 C 33.878288,155.20031 33.24894,155.29355 32.684864,155.29355 L 27.978741,155.29355 L 27.978741,145.04217 z M 31.146458,147.36376 L 31.146458,152.96496 L 31.922654,152.96496 C 32.584629,152.96496 33.055474,152.89154 33.335191,152.74469 C 33.614894,152.59784 33.834,152.34144 33.99251,151.97549 C 34.151005,151.60954 34.230256,151.01632 34.230263,150.19583 C 34.230256,149.10963 34.053106,148.36607 33.698814,147.96514 C 33.344508,147.56423 32.757117,147.36377 31.93664,147.36376 L 31.146458,147.36376 z M 39.083235,145.04217 L 42.250953,145.04217 L 42.250953,148.91616 L 45.572511,145.04217 L 49.782149,145.04217 L 46.048018,148.90916 L 49.949975,155.29355 L 46.048018,155.29355 L 43.887257,151.07692 L 42.250953,152.79014 L 42.250953,155.29355 L 39.083235,155.29355 L 39.083235,145.04217 z M 55.243491,151.90206 L 58.257368,151.71326 C 58.32263,152.20275 58.455493,152.5757 58.655955,152.8321 C 58.98228,153.247 59.448463,153.45446 60.054506,153.45445 C 60.506699,153.45446 60.855171,153.3484 61.099923,153.13628 C 61.344663,152.92417 61.467036,152.67826 61.467043,152.39855 C 61.467036,152.13283 61.35049,151.89507 61.117405,151.68529 C 60.884307,151.47551 60.343535,151.27738 59.495086,151.0909 C 58.105855,150.77856 57.115216,150.36366 56.523165,149.84619 C 55.926449,149.32873 55.628092,148.66909 55.628093,147.86724 C 55.628092,147.34046 55.780767,146.84281 56.086118,146.37429 C 56.391467,145.90579 56.850657,145.5375 57.463691,145.26943 C 58.076719,145.00139 58.917014,144.86736 59.984579,144.86735 C 61.294548,144.86736 62.293346,145.11094 62.980974,145.59809 C 63.668586,146.08527 64.077662,146.8603 64.208202,147.92319 L 61.222296,148.098 C 61.143039,147.63649 60.976378,147.30084 60.722314,147.09105 C 60.468239,146.88127 60.117436,146.77638 59.669905,146.77637 C 59.301615,146.77638 59.024236,146.85447 58.837767,147.01063 C 58.65129,147.16681 58.558053,147.35678 58.558057,147.58054 C 58.558053,147.74371 58.634973,147.89056 58.788818,148.02108 C 58.937992,148.15628 59.292291,148.28215 59.851716,148.39869 C 61.236275,148.69706 62.22808,148.99891 62.827133,149.30425 C 63.426171,149.60961 63.862052,149.98838 64.134779,150.44058 C 64.407486,150.89278 64.543845,151.39859 64.543855,151.958 C 64.543845,152.61533 64.362033,153.22136 63.99842,153.77612 C 63.634788,154.33088 63.126648,154.75161 62.473999,155.03831 C 61.821335,155.32502 60.998522,155.46837 60.005557,155.46837 C 58.262027,155.46837 57.054612,155.13272 56.38331,154.46141 C 55.712005,153.79011 55.332065,152.93699 55.243491,151.90206 L 55.243491,151.90206 z M 65.424939,145.04217 L 75.053962,145.04217 L 75.053962,147.57355 L 71.823309,147.57355 L 71.823309,155.29355 L 68.655591,155.29355 L 68.655591,147.57355 L 65.424939,147.57355 L 65.424939,145.04217 z M 83.165558,145.04217 L 86.326283,145.04217 L 86.326283,151.15384 C 86.326272,151.75988 86.23187,152.33212 86.043076,152.87056 C 85.854261,153.409 85.558235,153.87985 85.154996,154.2831 C 84.751738,154.68635 84.328677,154.96955 83.885811,155.13272 C 83.270441,155.36115 82.531541,155.47536 81.669108,155.47536 C 81.170286,155.47536 80.626017,155.4404 80.0363,155.37047 C 79.446574,155.30054 78.953585,155.16185 78.557333,154.9544 C 78.161074,154.74695 77.798616,154.45209 77.469959,154.06982 C 77.141298,153.68755 76.916365,153.29362 76.795158,152.88804 C 76.59936,152.23539 76.501462,151.65732 76.501463,151.15384 L 76.501463,145.04217 L 79.662188,145.04217 L 79.662188,151.30069 C 79.662184,151.86011 79.817189,152.29716 80.127206,152.61183 C 80.437213,152.9265 80.867267,153.08384 81.417369,153.08384 C 81.962797,153.08384 82.390521,152.92883 82.70054,152.61882 C 83.010544,152.30881 83.16555,151.86943 83.165558,151.30069 L 83.165558,145.04217 z M 88.480049,145.04217 L 93.186173,145.04217 C 94.113872,145.04218 94.863261,145.16805 95.434343,145.41978 C 96.00541,145.67153 96.47742,146.03282 96.850376,146.50366 C 97.223313,146.97451 97.4937,147.52228 97.661536,148.14695 C 97.829351,148.77165 97.913264,149.43363 97.913275,150.1329 C 97.913264,151.22843 97.78856,152.07805 97.539163,152.68175 C 97.289744,153.28546 96.943603,153.79127 96.500739,154.19918 C 96.057855,154.60709 95.582349,154.87865 95.074217,155.01384 C 94.379596,155.20031 93.750249,155.29355 93.186173,155.29355 L 88.480049,155.29355 L 88.480049,145.04217 z M 91.647767,147.36376 L 91.647767,152.96496 L 92.423963,152.96496 C 93.085938,152.96496 93.556783,152.89154 93.836499,152.74469 C 94.116202,152.59784 94.335309,152.34144 94.493818,151.97549 C 94.652313,151.60954 94.731564,151.01632 94.731572,150.19583 C 94.731564,149.10963 94.554415,148.36607 94.200122,147.96514 C 93.845816,147.56423 93.258425,147.36377 92.437948,147.36376 L 91.647767,147.36376 z M 99.696431,145.04217 L 102.87114,145.04217 L 102.87114,155.29355 L 99.696431,155.29355 L 99.696431,145.04217 z M 104.73821,150.17485 C 104.7382,148.50126 105.20439,147.19828 106.13676,146.2659 C 107.06912,145.33355 108.36744,144.86736 110.03172,144.86735 C 111.73795,144.86736 113.05258,145.32539 113.97563,146.24143 C 114.89867,147.15749 115.36019,148.44066 115.3602,150.09094 C 115.36019,151.28904 115.15856,152.27152 114.75533,153.03839 C 114.35207,153.80526 113.76934,154.40197 113.00714,154.82853 C 112.24492,155.25509 111.29507,155.46837 110.15759,155.46837 C 109.00145,155.46837 108.04461,155.28422 107.28706,154.91594 C 106.52951,154.54766 105.91532,153.96493 105.44447,153.16775 C 104.97363,152.37058 104.7382,151.37295 104.73821,150.17485 L 104.73821,150.17485 z M 107.90592,150.18884 C 107.90592,151.22377 108.09822,151.96733 108.48283,152.41953 C 108.86742,152.87173 109.39071,153.09783 110.0527,153.09782 C 110.73332,153.09783 111.26011,152.87639 111.63306,152.43351 C 112.006,151.99064 112.19247,151.1958 112.19248,150.04898 C 112.19247,149.08399 111.99784,148.37889 111.60859,147.93367 C 111.21932,147.48848 110.69136,147.26587 110.02473,147.26587 C 109.38605,147.26587 108.87325,147.49197 108.48632,147.94416 C 108.09939,148.39637 107.90592,149.14459 107.90592,150.18884 L 107.90592,150.18884 z"
       id="text3412" />
    <path
       style="font-size:14.90199566px;font-style:normal;font-variant:normal;font-weight:normal;font-stretch:normal;text-align:center;text-anchor:middle;fill:#ffffff;fill-opacity:1;stroke:none;stroke-width:1px;stroke-linecap:butt;stroke-linejoin:miter;stroke-opacity:1;font-family:Arial Black;-inkscape-font-specification:Arial Black"
       d="M 30.545335,242.50665 L 35.442329,242.50665 C 36.407653,242.50666 37.187436,242.63763 37.78168,242.89957 C 38.375908,243.16153 38.867062,243.53747 39.255144,244.02741 C 39.643207,244.51736 39.924559,245.08734 40.099203,245.73735 C 40.273825,246.38738 40.361141,247.07621 40.361152,247.80384 C 40.361141,248.94381 40.231379,249.82789 39.971866,250.45608 C 39.712332,251.08427 39.352153,251.61059 38.891326,252.03505 C 38.430481,252.4595 37.935688,252.74207 37.406948,252.88274 C 36.684155,253.07678 36.029283,253.1738 35.442329,253.1738 L 30.545335,253.1738 L 30.545335,242.50665 z M 33.841529,244.9224 L 33.841529,250.75077 L 34.649205,250.75077 C 35.338029,250.75077 35.82797,250.67437 36.119031,250.52156 C 36.410079,250.36876 36.638071,250.10196 36.803009,249.72116 C 36.967933,249.34037 37.050398,248.72309 37.050406,247.86933 C 37.050398,246.73907 36.866064,245.96535 36.497402,245.54817 C 36.128726,245.131 35.517512,244.92241 34.663758,244.9224 L 33.841529,244.9224 z M 48.648931,251.41292 L 44.894327,251.41292 L 44.377705,253.1738 L 41.008748,253.1738 L 45.018025,242.50665 L 48.61255,242.50665 L 52.621827,253.1738 L 49.17283,253.1738 L 48.648931,251.41292 z M 47.957677,249.10631 L 46.778906,245.27167 L 45.607411,249.10631 L 47.957677,249.10631 z M 52.920157,242.50665 L 62.939712,242.50665 L 62.939712,245.14069 L 59.578031,245.14069 L 59.578031,253.1738 L 56.281838,253.1738 L 56.281838,245.14069 L 52.920157,245.14069 L 52.920157,242.50665 z M 71.001924,251.41292 L 67.24732,251.41292 L 66.730698,253.1738 L 63.361741,253.1738 L 67.371018,242.50665 L 70.965543,242.50665 L 74.97482,253.1738 L 71.525823,253.1738 L 71.001924,251.41292 z M 70.31067,249.10631 L 69.131899,245.27167 L 67.960404,249.10631 L 70.31067,249.10631 z M 100.33295,249.64476 L 103.46906,249.4483 C 103.53697,249.95765 103.67522,250.34572 103.88382,250.61252 C 104.22337,251.04425 104.70847,251.26012 105.33909,251.26011 C 105.80962,251.26012 106.17223,251.14976 106.42691,250.92904 C 106.68157,250.70833 106.80891,250.45244 106.80891,250.16138 C 106.80891,249.88488 106.68763,249.63749 106.4451,249.41919 C 106.20254,249.20091 105.63984,248.99474 104.75698,248.8007 C 103.3114,248.4757 102.28059,248.04397 101.66452,247.50551 C 101.04361,246.96706 100.73315,246.28066 100.73315,245.4463 C 100.73315,244.89815 100.89202,244.38032 101.20975,243.89279 C 101.52748,243.40529 102.0053,243.02207 102.6432,242.74313 C 103.28109,242.46421 104.15546,242.32475 105.26632,242.32474 C 106.62942,242.32475 107.66873,242.57821 108.38425,243.08512 C 109.09975,243.59205 109.52541,244.39851 109.66125,245.50451 L 106.55424,245.68642 C 106.47177,245.20619 106.29835,244.85692 106.03398,244.63862 C 105.7696,244.42034 105.40457,244.31119 104.93889,244.31118 C 104.55566,244.31119 104.26703,244.39245 104.073,244.55494 C 103.87896,244.71746 103.78194,244.91513 103.78195,245.14797 C 103.78194,245.31776 103.86198,245.47056 104.02207,245.60638 C 104.17729,245.74706 104.54596,245.87804 105.12807,245.9993 C 106.56879,246.30977 107.60082,246.62386 108.22417,246.94159 C 108.8475,247.25933 109.30106,247.65347 109.58485,248.124 C 109.86862,248.59454 110.0105,249.12087 110.01051,249.70297 C 110.0105,250.38695 109.82132,251.01757 109.44296,251.59483 C 109.06458,252.17209 108.53583,252.60988 107.85671,252.90821 C 107.17758,253.20654 106.32139,253.35571 105.28815,253.35571 C 103.47391,253.35571 102.21753,253.00644 101.519,252.30791 C 100.82046,251.60938 100.42512,250.72167 100.33295,249.64476 L 100.33295,249.64476 z M 118.77853,248.81525 L 121.66725,249.68842 C 121.4732,250.49852 121.1676,251.17522 120.75043,251.71852 C 120.33324,252.26183 119.81541,252.67173 119.19693,252.94823 C 118.57843,253.22473 117.79137,253.36298 116.83575,253.36298 C 115.67637,253.36298 114.72923,253.19441 113.99432,252.85728 C 113.25941,252.52014 112.62515,251.92711 112.09156,251.0782 C 111.55795,250.2293 111.29115,249.1427 111.29115,247.81839 C 111.29115,246.05267 111.76048,244.69563 112.69913,243.74727 C 113.63778,242.79892 114.96571,242.32475 116.68294,242.32474 C 118.02664,242.32475 119.08292,242.5964 119.8518,243.13969 C 120.62066,243.683 121.19185,244.51736 121.56538,245.64276 L 118.65484,246.29036 C 118.55296,245.96535 118.44624,245.72766 118.33468,245.57727 C 118.15033,245.32503 117.92477,245.131 117.65797,244.99516 C 117.39117,244.85935 117.09284,244.79143 116.76298,244.79143 C 116.01594,244.79143 115.44353,245.09219 115.04576,245.69369 C 114.745,246.13999 114.59462,246.84094 114.59462,247.79656 C 114.59462,248.98019 114.7741,249.7915 115.13308,250.23051 C 115.49204,250.66952 115.99653,250.88902 116.64656,250.88902 C 117.27717,250.88902 117.75377,250.71196 118.07637,250.35784 C 118.39894,250.00373 118.633,249.48954 118.77853,248.81525 L 118.77853,248.81525 z M 123.2535,242.50665 L 132.08701,242.50665 L 132.08701,244.78415 L 126.55697,244.78415 L 126.55697,246.47954 L 131.68681,246.47954 L 131.68681,248.65517 L 126.55697,248.65517 L 126.55697,250.75804 L 132.24709,250.75804 L 132.24709,253.1738 L 123.2535,253.1738 L 123.2535,242.50665 z M 134.05163,242.50665 L 137.12953,242.50665 L 141.14608,248.40778 L 141.14608,242.50665 L 144.25309,242.50665 L 144.25309,253.1738 L 141.14608,253.1738 L 137.15136,247.31632 L 137.15136,253.1738 L 134.05163,253.1738 L 134.05163,242.50665 z M 153.02111,251.41292 L 149.26651,251.41292 L 148.74989,253.1738 L 145.38093,253.1738 L 149.39021,242.50665 L 152.98473,242.50665 L 156.99401,253.1738 L 153.54501,253.1738 L 153.02111,251.41292 z M 152.32986,249.10631 L 151.15109,245.27167 L 149.97959,249.10631 L 152.32986,249.10631 z M 189.86862,242.50665 L 193.15754,242.50665 L 193.15754,248.86619 C 193.15753,249.49681 193.0593,250.09226 192.86285,250.65254 C 192.66637,251.21282 192.35834,251.70276 191.93875,252.12236 C 191.51913,252.54197 191.07892,252.83666 190.61809,253.00644 C 189.97776,253.24414 189.20889,253.36298 188.31148,253.36298 C 187.79243,253.36298 187.22608,253.3266 186.61245,253.25384 C 185.9988,253.18107 185.48582,253.03676 185.0735,252.82089 C 184.66117,252.60503 184.28401,252.29821 183.94202,251.90043 C 183.60003,251.50266 183.36598,251.09276 183.23985,250.67073 C 183.03611,249.9916 182.93425,249.39009 182.93425,248.86619 L 182.93425,242.50665 L 186.22316,242.50665 L 186.22316,249.01899 C 186.22316,249.60111 186.38445,250.05588 186.70704,250.38331 C 187.02962,250.71075 187.47712,250.87447 188.04953,250.87447 C 188.61708,250.87447 189.06215,250.71318 189.38474,250.39059 C 189.70732,250.06801 189.86861,249.61081 189.86862,249.01899 L 189.86862,242.50665 z M 199.79359,242.50665 L 203.09706,242.50665 L 203.09706,248.30591 C 203.09705,249.52349 202.98912,250.45001 202.77326,251.08548 C 202.55739,251.72095 202.12323,252.2594 201.47079,252.70083 C 200.81834,253.14227 199.98277,253.36298 198.96409,253.36298 C 197.88718,253.36298 197.05283,253.21746 196.46102,252.9264 C 195.8692,252.63535 195.41201,252.20968 195.08942,251.6494 C 194.76684,251.08912 194.57644,250.39665 194.51823,249.572 L 197.66889,249.14269 C 197.67374,249.61323 197.71497,249.9625 197.79259,250.19049 C 197.8702,250.41848 198.00118,250.60282 198.18552,250.74349 C 198.31164,250.83566 198.49112,250.88174 198.72397,250.88174 C 199.09263,250.88174 199.36307,250.74471 199.53528,250.47063 C 199.70748,250.19655 199.79359,249.73451 199.79359,249.08448 L 199.79359,242.50665 z M 205.30179,242.50665 L 214.1353,242.50665 L 214.1353,244.78415 L 208.60526,244.78415 L 208.60526,246.47954 L 213.7351,246.47954 L 213.7351,248.65517 L 208.60526,248.65517 L 208.60526,250.75804 L 214.29538,250.75804 L 214.29538,253.1738 L 205.30179,253.1738 L 205.30179,242.50665 z M 210.94097,252.98461 L 212.17068,252.98461 C 212.07365,253.40664 212.02514,253.75591 212.02515,254.03241 C 212.02514,254.40108 212.11488,254.68 212.29438,254.86919 C 212.47385,255.05837 212.72367,255.15297 213.04384,255.15297 C 213.27183,255.15297 213.58228,255.08991 213.97522,254.96378 L 213.97522,256.09162 C 213.37369,256.31476 212.8595,256.42633 212.43263,256.42633 C 211.85051,256.42633 211.39816,256.2711 211.07558,255.96065 C 210.75299,255.65018 210.5917,255.23786 210.59171,254.72366 C 210.5917,254.29193 210.70812,253.71225 210.94097,252.98461 L 210.94097,252.98461 z M 223.17983,248.81525 L 226.06854,249.68842 C 225.8745,250.49852 225.56889,251.17522 225.15172,251.71852 C 224.73453,252.26183 224.2167,252.67173 223.59822,252.94823 C 222.97972,253.22473 222.19266,253.36298 221.23704,253.36298 C 220.07766,253.36298 219.13052,253.19441 218.39562,252.85728 C 217.6607,252.52014 217.02644,251.92711 216.49285,251.0782 C 215.95924,250.2293 215.69245,249.1427 215.69245,247.81839 C 215.69245,246.05267 216.16177,244.69563 217.10042,243.74727 C 218.03907,242.79892 219.36701,242.32475 221.08423,242.32474 C 222.42793,242.32475 223.48421,242.5964 224.25309,243.13969 C 225.02195,243.683 225.59314,244.51736 225.96667,245.64276 L 223.05613,246.29036 C 222.95425,245.96535 222.84753,245.72766 222.73597,245.57727 C 222.55163,245.32503 222.32606,245.131 222.05927,244.99516 C 221.79246,244.85935 221.49413,244.79143 221.16427,244.79143 C 220.41723,244.79143 219.84482,245.09219 219.44705,245.69369 C 219.14629,246.13999 218.99591,246.84094 218.99592,247.79656 C 218.99591,248.98019 219.1754,249.7915 219.53437,250.23051 C 219.89333,250.66952 220.39782,250.88902 221.04785,250.88902 C 221.67846,250.88902 222.15506,250.71196 222.47766,250.35784 C 222.80023,250.00373 223.03429,249.48954 223.17983,248.81525 L 223.17983,248.81525 z M 227.79304,242.50665 L 231.09651,242.50665 L 231.09651,253.1738 L 227.79304,253.1738 L 227.79304,242.50665 z M 233.44678,242.50665 L 242.28029,242.50665 L 242.28029,244.78415 L 236.75025,244.78415 L 236.75025,246.47954 L 241.88009,246.47954 L 241.88009,248.65517 L 236.75025,248.65517 L 236.75025,250.75804 L 242.44037,250.75804 L 242.44037,253.1738 L 233.44678,253.1738 L 233.44678,242.50665 z"
       id="text3416" />
    <path
       style="fill:none;fill-rule:evenodd;stroke:#ffffff;stroke-width:3;stroke-linecap:round;stroke-linejoin:round;stroke-miterlimit:4;stroke-dasharray:none;stroke-opacity:1"
       d="M 108.52006,183.09874 L 243.8805,182.08858"
       id="path3420" />
    <path
       style="font-size:16.37421799px;font-style:normal;font-variant:normal;font-weight:normal;font-stretch:normal;text-align:center;text-anchor:middle;fill:#ffffff;fill-opacity:1;stroke:none;stroke-width:1px;stroke-linecap:butt;stroke-linejoin:miter;stroke-opacity:1;font-family:Arial Black;-inkscape-font-specification:Arial Black"
       d="M 16.93609,169.31623 L 20.557926,169.31623 L 20.557926,173.74559 L 24.355657,169.31623 L 29.168782,169.31623 L 24.899332,173.73759 L 29.360667,181.03723 L 24.899332,181.03723 L 22.428808,176.21611 L 20.557926,178.17494 L 20.557926,181.03723 L 16.93609,181.03723 L 16.93609,169.31623 z M 30.120213,175.18473 C 30.120213,173.27121 30.653227,171.78144 31.719258,170.7154 C 32.785285,169.64938 34.26973,169.11636 36.172598,169.11635 C 38.123423,169.11636 39.626524,169.64005 40.681904,170.68741 C 41.737261,171.7348 42.264945,173.20192 42.264958,175.08879 C 42.264945,176.45864 42.034416,177.58197 41.573371,178.45877 C 41.112302,179.33558 40.446034,180.01784 39.574565,180.50555 C 38.703077,180.99326 37.61706,181.23711 36.316512,181.23711 C 34.994629,181.23711 33.900617,181.02657 33.034472,180.60549 C 32.16832,180.18441 31.466074,179.51814 30.927731,178.60668 C 30.389385,177.69523 30.120213,176.55458 30.120213,175.18473 L 30.120213,175.18473 z M 33.74205,175.20072 C 33.742045,176.38402 33.961914,177.23417 34.401656,177.75119 C 34.841387,178.26822 35.439696,178.52673 36.196583,178.52673 C 36.974777,178.52673 37.577084,178.27355 38.003504,177.76718 C 38.429907,177.26082 38.643112,176.35204 38.643122,175.04081 C 38.643112,173.93748 38.420579,173.1313 37.975521,172.62226 C 37.530445,172.11324 36.926806,171.85872 36.164602,171.85871 C 35.434366,171.85872 34.84805,172.11724 34.405653,172.63425 C 33.963246,173.15128 33.742045,174.00677 33.74205,175.20072 L 33.74205,175.20072 z M 44.191807,169.31623 L 48.95696,169.31623 L 50.795862,176.44797 L 52.626768,169.31623 L 57.375931,169.31623 L 57.375931,181.03723 L 54.417698,181.03723 L 54.417698,172.09857 L 52.123069,181.03723 L 49.444669,181.03723 L 47.158035,172.09857 L 47.158035,181.03723 L 44.191807,181.03723 L 44.191807,169.31623 z M 59.670557,169.31623 L 69.376759,169.31623 L 69.376759,171.81874 L 63.300389,171.81874 L 63.300389,173.68163 L 68.937022,173.68163 L 68.937022,176.0722 L 63.300389,176.0722 L 63.300389,178.38282 L 69.552654,178.38282 L 69.552654,181.03723 L 59.670557,181.03723 L 59.670557,169.31623 z M 71.53547,169.31623 L 74.917449,169.31623 L 79.330813,175.80036 L 79.330813,169.31623 L 82.744773,169.31623 L 82.744773,181.03723 L 79.330813,181.03723 L 74.941435,174.60108 L 74.941435,181.03723 L 71.53547,181.03723 L 71.53547,169.31623 z M 84.343822,169.31623 L 95.353245,169.31623 L 95.353245,172.2105 L 91.659451,172.2105 L 91.659451,181.03723 L 88.037615,181.03723 L 88.037615,172.2105 L 84.343822,172.2105 L 84.343822,169.31623 z M 96.792378,177.77518 L 100.2703,177.77518 L 100.2703,181.03723 L 96.792378,181.03723 L 96.792378,177.77518 z"
       id="text3422" />
  </g>
</svg>
